PathFileType	4	(X/Y/Z)	/Users/visionmauri/Downloads/Videos/OAW04-top_Sports2D/OAW04-top_Sports2D_px_person00.trc
DataRate	CameraRate	NumFrames	NumMarkers	Units	OrigDataRate	OrigDataStartFrame	OrigNumFrames
30.0	30.0	7	22	m	30.0	295	2367
Frame#	Time	Hip			RHip			RKnee			RAnkle			RBigToe			RSmallToe			RHeel			LHip			LKnee			LAnkle			LBigToe			LSmallToe			LHeel			Neck			Head			Nose			RShoulder			RElbow			RWrist			LShoulder			LElbow			LWrist			
		X1	Y1	Z1	X2	Y2	Z2	X3	Y3	Z3	X4	Y4	Z4	X5	Y5	Z5	X6	Y6	Z6	X7	Y7	Z7	X8	Y8	Z8	X9	Y9	Z9	X10	Y10	Z10	X11	Y11	Z11	X12	Y12	Z12	X13	Y13	Z13	X14	Y14	Z14	X15	Y15	Z15	X16	Y16	Z16	X17	Y17	Z17	X18	Y18	Z18	X19	Y19	Z19	X20	Y20	Z20	X21	Y21	Z21	X22	Y22	Z22
295	9.837489433643281	632.880499544591	760.0030769258344	0.0	623.850405502636	761.0427662134581	0.0	622.7087968499399	800.3271265539404	0.0	621.8795324348276	837.393509110566	0.0	620.42371437636	849.4466301492257	0.0	615.7474806766327	848.0391508551668	0.0	621.8181516818713	843.694632435274	0.0	642.9885251958831	761.0046037812839	0.0	639.8278643280663	800.1295225766006	0.0	633.5106842793682	837.3790753108029	0.0	632.4693680896858	849.4879252352969	0.0	637.4240197324905	849.0494904860032	0.0	632.8818170383636	843.1381557561715	0.0	634.7501585136071	705.1194551229758	0.0	634.5066340370552	676.5220956878932	0.0	633.0485924628047	700.2516559124377	0.0	615.1922454457683	708.1921016273963	0.0	607.2736907190301	737.3976210161369	0.0	608.4946564080838	761.4659218106003	0.0	653.3923596836921	708.707822971299	0.0	663.8476917849581	736.0594266318869	0.0	660.1484056405764	760.283204164392	0.0
296	9.870836855452241	632.8940538227414	759.9097326271154	0.0	623.7156959629561	761.1606122752694	0.0	622.4992440517914	800.3455033899885	0.0	621.9129784763869	837.6723661120456	0.0	620.2352548458224	849.9321502627174	0.0	615.6672419991595	848.2561846042157	0.0	621.8369647149177	843.8398067277307	0.0	643.0136937614983	761.1869075696817	0.0	639.8829048187331	800.3806267448178	0.0	633.5833526533102	837.6587647374619	0.0	632.5711605539253	849.5285600221838	0.0	637.655057506252	849.0544074921153	0.0	632.7266715764672	843.2808105301222	0.0	634.7668107705172	705.0964297325909	0.0	634.195630166535	675.9987256613216	0.0	633.1588563083521	700.2091136714555	0.0	615.3683887592532	708.213699320294	0.0	607.3939068871382	737.0400449603734	0.0	608.7606594908485	761.3369011994358	0.0	653.3303530867798	708.7763692241956	0.0	662.8568180332204	736.6817327899118	0.0	659.5572377491525	760.6347147949958	0.0
297	9.904184277261201	633.0643908004016	759.7201298417936	0.0	623.7737785045306	761.4581979158615	0.0	622.4380617311514	800.4731783010634	0.0	621.9569231158081	837.5984256699884	0.0	620.0740488936416	850.106045848581	0.0	615.6893353775779	848.4734779566411	0.0	621.9116017900471	844.0565724618247	0.0	643.0727242386474	761.4850639977208	0.0	640.0116803801908	800.5151234031274	0.0	633.7058409404955	837.5962250641669	0.0	632.6573393842549	849.5855705879321	0.0	637.7703434160653	848.9673779889644	0.0	632.6633365638485	843.3415377935017	0.0	634.9583257181965	704.8028794959347	0.0	634.3941985566107	675.3767454580874	0.0	633.3809540971365	699.5563067232603	0.0	615.7606186104964	708.2106193362811	0.0	607.5743945389568	736.4777274811258	0.0	609.1731933794282	760.6025283127988	0.0	653.314937982575	708.7642387276699	0.0	662.2240079569472	737.2674220148655	0.0	658.8689875757515	760.9802926914513	0.0
298	9.937531699070162	633.2137460294806	759.5273490142256	0.0	623.9677288512362	761.5785274795918	0.0	622.5129811737678	800.4965181136878	0.0	622.015127874503	837.4289777752931	0.0	619.9782458250336	849.9553291436896	0.0	615.807008099161	848.6064529156733	0.0	622.006815630955	844.2477676515597	0.0	643.0670938425162	761.5592791199662	0.0	640.1345377363662	800.432409787257	0.0	633.7954766937822	837.4308267775581	0.0	632.8211559367355	849.7142913670158	0.0	637.9070734497959	848.9117782505361	0.0	632.7163017726957	843.3477714550644	0.0	635.1872682261243	704.3793085418977	0.0	634.9511667776472	675.0242489092045	0.0	633.552420238997	698.5576567040978	0.0	616.2046676669268	708.191389406613	0.0	607.6734627570559	736.0032550221129	0.0	609.8403294756146	759.4736478055233	0.0	653.3581581718407	708.7186267728697	0.0	661.9090764368249	737.7592668991279	0.0	658.4004360153599	761.4165581689045	0.0
299	9.970879120879122	633.1606277192033	759.3181812046424	0.0	624.044330891885	761.230868330033	0.0	622.5342834855347	800.3428192658201	0.0	622.0021803995429	837.3650531599151	0.0	620.0087217321797	849.7792636736566	0.0	615.9301535236252	848.6524569812564	0.0	622.0016395748358	844.272588539259	0.0	642.8487711010181	761.1237367046303	0.0	640.168095975924	800.1613207658909	0.0	633.777063248664	837.3661696566624	0.0	632.9726141415427	849.8727827545447	0.0	638.0644117978077	848.9601494913964	0.0	632.7452115941471	843.2848079112562	0.0	635.1903367800052	704.0699513973153	0.0	635.1826141459395	674.857698488047	0.0	633.4731116032277	697.6012302139128	0.0	616.4024537838933	708.1723403047409	0.0	607.5832566923438	735.5952763848273	0.0	610.5907730463979	758.0084449315651	0.0	653.2826235460996	708.6978912287374	0.0	661.5779637313223	738.0665582560982	0.0	658.3640842810337	761.9963828801676	0.0
300	10.004226542688082	632.9543361991437	759.1042636491399	0.0	623.9817387374015	760.7075702705775	0.0	622.4631229691649	800.0897301895395	0.0	621.9065883067815	837.3446849413193	0.0	620.1708638716207	849.6562641779951	0.0	615.9861216235853	848.6253691268105	0.0	621.8968459516417	844.1291945698016	0.0	642.504748219174	760.51657700075	0.0	640.1194810779248	799.735129827408	0.0	633.6640079416511	837.3447458524637	0.0	632.835445003478	849.9213563054989	0.0	637.8973460447916	849.0385485771529	0.0	632.6093763159922	843.1322869980862	0.0	635.0119200831828	703.8303627190123	0.0	634.9470379357429	674.7415275340206	0.0	633.3372541370029	697.041131433406	0.0	616.2536289276323	708.1603987796348	0.0	607.4237521846927	735.154530881351	0.0	611.2018768318187	756.242239732741	0.0	653.0463604234628	708.7595465441617	0.0	661.1948476566195	738.1644470779315	0.0	658.64370672229	762.5948265203759	0.0
301	10.037573964497042	632.7593751697711	758.9829823962646	0.0	623.91813921526	760.4904158465462	0.0	622.4105257311014	799.8746257931837	0.0	621.7954339437533	837.318333332861	0.0	620.2948433598013	849.5903483410625	0.0	615.9625508031867	848.5573626974954	0.0	621.818273170535	843.9863212683682	0.0	642.2695415553168	760.2356696664507	0.0	640.0672952436616	799.3563654737394	0.0	633.5326729648197	837.3181449556732	0.0	632.4048467160579	849.8768823923604	0.0	637.3579801766715	849.1086285971548	0.0	632.3452530100747	842.9945844918306	0.0	634.87220402846	703.5907868611386	0.0	634.6721506625714	674.8395861892692	0.0	633.4796139850021	696.9756971539954	0.0	615.9315465838666	708.1619010915232	0.0	607.3684362096124	734.7824964318593	0.0	611.5717521605865	754.5775116341238	0.0	652.851139992522	708.8993875579794	0.0	660.9759889423151	738.1822862990815	0.0	658.9949354459262	763.1974158787908	0.0
